<svg width="520" height="520" viewBox="0 0 520 520" fill="none" xmlns="http://www.w3.org/2000/svg">
<path d="M244.356 153.229C244.356 168.214 239.117 179.537 228.639 187.198C218.274 194.859 204.641 198.69 187.741 198.69C170.728 198.69 157.039 194.859 146.674 187.198C136.309 179.537 131.126 168.101 131.126 152.891V122.809C131.126 112.669 133.661 104.163 138.731 97.29C143.801 90.4173 150.561 85.3473 159.011 82.08C167.574 78.7 177.15 77.01 187.741 77.01C198.332 77.01 207.852 78.7 216.302 82.08C224.865 85.3473 231.681 90.4173 236.751 97.29C241.821 104.05 244.356 112.444 244.356 122.471V153.229ZM176.756 154.581C176.756 157.736 177.826 160.383 179.967 162.524C182.108 164.552 184.699 165.566 187.741 165.566C190.783 165.566 193.374 164.496 195.515 162.355C197.656 160.214 198.726 157.623 198.726 154.581V120.781C198.726 117.626 197.656 115.035 195.515 113.007C193.487 110.866 190.896 109.796 187.741 109.796C184.586 109.796 181.939 110.866 179.798 113.007C177.77 115.148 176.756 117.739 176.756 120.781V154.581ZM384.222 78.7C385.461 78.7 386.532 79.1507 387.433 80.052C388.334 80.9533 388.785 82.0237 388.785 83.263V192.437C388.785 193.676 388.334 194.747 387.433 195.648C386.532 196.549 385.461 197 384.222 197H357.013C354.309 197 352.056 195.817 350.253 193.451L313.411 146.469V192.437C313.411 193.676 312.96 194.747 312.059 195.648C311.158 196.549 310.087 197 308.848 197H277.414C276.175 197 275.104 196.549 274.203 195.648C273.302 194.747 272.851 193.676 272.851 192.437V83.263C272.851 82.0237 273.302 80.9533 274.203 80.052C275.104 79.1507 276.175 78.7 277.414 78.7H304.792C307.496 78.7 309.693 79.8267 311.383 82.08L348.225 132.949V83.263C348.225 82.0237 348.676 80.9533 349.577 80.052C350.478 79.1507 351.549 78.7 352.788 78.7H384.222Z" fill="#2D2A2E"/>
<path d="M209.88 196.263C211.57 193.221 213.992 191.7 217.147 191.7H248.074C249.313 191.7 250.384 192.151 251.285 193.052C252.186 193.953 252.637 195.024 252.637 196.263V305.437C252.637 306.676 252.186 307.747 251.285 308.648C250.384 309.549 249.313 310 248.074 310H217.485C216.246 310 215.175 309.549 214.274 308.648C213.373 307.747 212.922 306.676 212.922 305.437V253.047L200.585 277.383C200.247 278.172 199.458 279.073 198.219 280.087C196.98 281.101 195.402 281.608 193.487 281.608H181.995C180.08 281.608 178.502 281.101 177.263 280.087C176.024 279.073 175.235 278.172 174.897 277.383L162.56 253.047V305.437C162.56 306.676 162.109 307.747 161.208 308.648C160.307 309.549 159.236 310 157.997 310H127.408C126.169 310 125.098 309.549 124.197 308.648C123.296 307.747 122.845 306.676 122.845 305.437V196.263C122.845 195.024 123.296 193.953 124.197 193.052C125.098 192.151 126.169 191.7 127.408 191.7H158.335C161.49 191.7 163.912 193.221 165.602 196.263L187.741 236.823L209.88 196.263ZM394.193 261.159C394.193 278.397 388.447 291.128 376.955 299.353C365.576 307.578 350.366 311.69 331.325 311.69C312.284 311.69 297.018 307.578 285.526 299.353C274.147 291.128 268.457 278.284 268.457 260.821V240.879C268.457 229.387 271.161 219.867 276.569 212.318C282.09 204.657 289.582 199.023 299.046 195.418C308.51 191.813 319.27 190.01 331.325 190.01C343.38 190.01 354.084 191.813 363.435 195.418C372.899 199.023 380.391 204.6 385.912 212.149C391.433 219.698 394.193 229.162 394.193 240.541V261.159ZM314.087 264.37C314.087 268.989 315.608 272.538 318.65 275.017C321.805 277.496 326.03 278.735 331.325 278.735C336.62 278.735 340.789 277.496 343.831 275.017C346.986 272.426 348.563 268.82 348.563 264.201V237.499C348.563 232.88 346.986 229.331 343.831 226.852C340.789 224.261 336.62 222.965 331.325 222.965C326.03 222.965 321.805 224.204 318.65 226.683C315.608 229.162 314.087 232.711 314.087 237.33V264.37Z" fill="#2D2A2E"/>
<path d="M210.725 392.355H241.314C242.553 392.355 243.624 392.806 244.525 393.707C245.426 394.608 245.877 395.679 245.877 396.918V422.437C245.877 423.676 245.426 424.747 244.525 425.648C243.624 426.549 242.553 427 241.314 427H134.168C132.929 427 131.858 426.549 130.957 425.648C130.056 424.747 129.605 423.676 129.605 422.437V396.918C129.605 395.679 130.056 394.608 130.957 393.707C131.858 392.806 132.929 392.355 134.168 392.355H165.095V343.345H134.168C132.929 343.345 131.858 342.894 130.957 341.993C130.056 341.092 129.605 340.021 129.605 338.782V313.263C129.605 312.024 130.056 310.953 130.957 310.052C131.858 309.151 132.929 308.7 134.168 308.7H241.314C242.553 308.7 243.624 309.151 244.525 310.052C245.426 310.953 245.877 312.024 245.877 313.263V338.782C245.877 340.021 245.426 341.092 244.525 341.993C243.624 342.894 242.553 343.345 241.314 343.345H210.725V392.355ZM385.743 392.355C386.982 392.355 388.053 392.806 388.954 393.707C389.855 394.608 390.306 395.679 390.306 396.918V422.437C390.306 423.676 389.855 424.747 388.954 425.648C388.053 426.549 386.982 427 385.743 427H277.245C276.006 427 274.935 426.549 274.034 425.648C273.133 424.747 272.682 423.676 272.682 422.437V398.101C272.682 396.636 272.964 395.397 273.527 394.383C274.09 393.369 274.654 392.637 275.217 392.186L328.621 343.345H280.794C279.555 343.345 278.484 342.894 277.583 341.993C276.682 341.092 276.231 340.021 276.231 338.782V313.263C276.231 312.024 276.682 310.953 277.583 310.052C278.484 309.151 279.555 308.7 280.794 308.7H382.194C383.433 308.7 384.504 309.151 385.405 310.052C386.306 310.953 386.757 312.024 386.757 313.263V337.43C386.757 339.796 386.025 341.655 384.56 343.007L331.832 392.355H385.743Z" fill="#2D2A2E"/>
</svg>
